<?xml version="1.0" encoding="UTF-8" standalone="no"?>
<!DOCTYPE svg PUBLIC "-//W3C//DTD SVG 1.1//EN" "http://www.w3.org/Graphics/SVG/1.1/DTD/svg11.dtd">
<svg width="100%" height="100%" viewBox="0 0 48 112" version="1.1" xmlns="http://www.w3.org/2000/svg" xmlns:xlink="http://www.w3.org/1999/xlink" xml:space="preserve" xmlns:serif="http://www.serif.com/" style="fill-rule:evenodd;clip-rule:evenodd;stroke-linejoin:round;stroke-miterlimit:2;">
    <g transform="matrix(1,0,0,1,-456,-128)">
        <g id="_8" serif:id="8" transform="matrix(1,0,0,1,8,8.52651e-14)">
            <path d="M496,208L480,224L464,224L448,208L448,190L458,180L448,170L448,152L464,136L480,136L496,152L496,170L486,180L496,190L496,208ZM462,196L472,206L482,196L472,186L462,196ZM482,164L472,154L462,164L472,174L482,164Z" style="fill:white;"/>
        </g>
    </g>
</svg>
