<?xml version="1.0" encoding="UTF-8" standalone="no"?>
<!DOCTYPE svg PUBLIC "-//W3C//DTD SVG 1.1//EN" "http://www.w3.org/Graphics/SVG/1.1/DTD/svg11.dtd">
<svg width="100%" height="100%" viewBox="0 0 48 112" version="1.1" xmlns="http://www.w3.org/2000/svg" xmlns:xlink="http://www.w3.org/1999/xlink" xml:space="preserve" xmlns:serif="http://www.serif.com/" style="fill-rule:evenodd;clip-rule:evenodd;stroke-linejoin:round;stroke-miterlimit:2;">
    <g transform="matrix(1,0,0,1,-512,-128)">
        <g id="_9" serif:id="9" transform="matrix(-1,1.22465e-16,-1.22465e-16,-1,912,360)">
            <path d="M372,170L386,170L400,184L400,208L384,224L368,224L352,208L352,152L368,136L384,136L400,152L400,160L388,160L378,150L368,160L368,174L372,170ZM366,196L376,206L386,196L376,186L366,196Z" style="fill:white;"/>
        </g>
    </g>
</svg>
