<?xml version="1.0" encoding="UTF-8" standalone="no"?>
<!DOCTYPE svg PUBLIC "-//W3C//DTD SVG 1.1//EN" "http://www.w3.org/Graphics/SVG/1.1/DTD/svg11.dtd">
<svg width="100%" height="100%" viewBox="0 0 440 236" version="1.1" xmlns="http://www.w3.org/2000/svg" xmlns:xlink="http://www.w3.org/1999/xlink" xml:space="preserve" xmlns:serif="http://www.serif.com/" style="fill-rule:evenodd;clip-rule:evenodd;stroke-linejoin:round;stroke-miterlimit:2;">
    <g transform="matrix(1,0,0,1,-16,-16)">
        <g transform="matrix(1,0,0,1,-116,-40)">
            <path d="M456,68.686L443.314,56L384,56L384,68.686L371.314,56L312,56L312,68.686L299.314,56L240,56L240,68.686L227.314,56L188,56L168,76L168,107.314L180.686,120L172,120L132,160L148,160L132,176L132,243.314L152.686,264L256,264L284,292L284,251.314L308,275.314L308,232C308,232 320.686,232 320.686,232C320.686,232 324,235.314 324,235.314C324,235.314 324,243.314 324,243.314L356,275.314L356,251.314L368.686,264L399.314,264L420,243.314L440.686,264L500,264L500,251.314L524,275.314L524,243.314C524,243.314 560.686,280 560.686,280L572,292L572,244.686L555.314,228L572,211.314L572,180.686L551.314,160L572,160L532,120L520,120L520,108.686L507.314,96L540,96L520,76.686L499.314,56L456,56L456,68.686ZM356,240L356,168L396,168L420,192L420,232L396,256L372,256L356,240ZM500,240L500,168L548,168L564,184L564,208L548,224L540,224L564,248L564,272L516,224L516,256L500,240ZM276,184L276,272L212,208L212,168L228,184L228,200L260,232L260,168L276,184ZM300,256L284,240L284,168L332,168L348,184L348,256L332,240L332,232L324,224L300,224L300,256ZM156,256L140,240L140,184L156,168L188,168L204,184L204,192L156,192L164,200L172,200L188,216L188,224L156,224L164,232L224,232L248,256L156,256ZM444,256L428,240L428,168L476,168L492,184L492,192L444,192L452,200L460,200L476,216L476,224L444,224L452,232L492,232L492,256L444,256ZM372,224L372,192L396,192L404,200L404,224L396,232L380,232L372,224ZM524,200L516,192L540,192L548,200L524,200ZM308,200L332,200L324,192L300,192L308,200ZM248,136L248,64L296,64L312,80L312,104L296,120L264,120L264,152L248,136ZM178,128L154,152L240,152L240,112L224,96L200,96L192,88L240,88L240,80L224,64L193,64L176,80L176,104L192,120L216,120L224,128L178,128ZM336,152L320,136L320,64L368,64L384,80L384,152L368,136L368,128L360,120L336,120L336,152ZM456,88L456,80L440,64L392,64L392,136L408,152L456,152L456,128L408,128L408,88L456,88ZM480,152L464,136L464,64L496,64L520,88L480,88L488,96L496,96L512,112L512,120L480,120L488,128L528,128L552,152L480,152ZM344,96L368,96L360,88L336,88L344,96ZM272,96L264,88L288,88L296,96L272,96Z" style="fill:white;"/>
        </g>
    </g>
</svg>
