<?xml version="1.0" encoding="UTF-8" standalone="no"?>
<!DOCTYPE svg PUBLIC "-//W3C//DTD SVG 1.1//EN" "http://www.w3.org/Graphics/SVG/1.1/DTD/svg11.dtd">
<svg width="100%" height="100%" viewBox="0 0 600 228" version="1.1" xmlns="http://www.w3.org/2000/svg" xmlns:xlink="http://www.w3.org/1999/xlink" xml:space="preserve" xmlns:serif="http://www.serif.com/" style="fill-rule:evenodd;clip-rule:evenodd;stroke-linejoin:round;stroke-miterlimit:2;">
    <g transform="matrix(1,0,0,1,-440,-520)">
        <g transform="matrix(1,0,0,1,388,464)">
            <path d="M456,68.686L443.314,56L384,56L384,68.686L371.314,56L312,56L312,68.686L299.314,56L240,56L240,68.686L227.314,56L188,56L168,76L168,107.314L180.686,120L92,120L52,160L140,160L132,168L132,235.314L152.686,256L256,256L284,284L284,243.314L308,267.314L308,224C308,224 320.686,224 320.686,224C320.686,224 324,227.314 324,227.314C324,227.314 324,235.314 324,235.314L356,267.314L356,243.314L368.686,256L399.314,256L420,235.314L440.686,256L500,256L500,243.314L524,267.314L524,235.314C524,235.314 560.686,272 560.686,272L572,284L572,236.686L555.314,220L572,203.314L572,172.686L559.314,160L652,160L612,120L520,120L520,108.686L507.314,96L540,96L520,76.686L499.314,56L456,56L456,68.686ZM356,232L356,160L396,160L420,184L420,224L396,248L372,248L356,232ZM500,232L500,160L548,160L564,176L564,200L548,216L540,216L564,240L564,264L516,216L516,248L500,232ZM276,176L276,264L212,200L212,160L228,176L228,192L260,224L260,160L276,176ZM300,248L284,232L284,160L332,160L348,176L348,248L332,232L332,224L324,216L300,216L300,248ZM156,248L140,232L140,176L156,160L188,160L204,176L204,184L156,184L164,192L172,192L188,208L188,216L156,216L164,224L224,224L248,248L156,248ZM444,248L428,232L428,160L476,160L492,176L492,184L444,184L452,192L460,192L476,208L476,216L444,216L452,224L492,224L492,248L444,248ZM372,216L372,184L396,184L404,192L404,216L396,224L380,224L372,216ZM524,192L516,184L540,184L548,192L524,192ZM308,192L332,192L324,184L300,184L308,192ZM248,136L248,64L296,64L312,80L312,104L296,120L264,120L264,152L248,136ZM98,128L74,152L240,152L240,112L224,96L200,96L192,88L240,88L240,80L224,64L193,64L176,80L176,104L192,120L216,120L224,128L98,128ZM336,152L320,136L320,64L368,64L384,80L384,152L368,136L368,128L360,120L336,120L336,152ZM456,88L456,80L440,64L392,64L392,136L408,152L456,152L456,128L408,128L408,88L456,88ZM480,152L464,136L464,64L496,64L520,88L480,88L488,96L496,96L512,112L512,120L480,120L488,128L608,128L632,152L480,152ZM344,96L368,96L360,88L336,88L344,96ZM272,96L264,88L288,88L296,96L272,96Z" style="fill:white;"/>
        </g>
    </g>
</svg>
