<?xml version="1.0" encoding="UTF-8" standalone="no"?>
<!DOCTYPE svg PUBLIC "-//W3C//DTD SVG 1.1//EN" "http://www.w3.org/Graphics/SVG/1.1/DTD/svg11.dtd">
<svg width="100%" height="100%" viewBox="0 0 1280 720" version="1.1" xmlns="http://www.w3.org/2000/svg" xmlns:xlink="http://www.w3.org/1999/xlink" xml:space="preserve" xmlns:serif="http://www.serif.com/" style="fill-rule:evenodd;clip-rule:evenodd;stroke-linejoin:round;stroke-miterlimit:2;">
    <rect x="0" y="0" width="1280" height="720"/>
    <g id="Rocks" transform="matrix(1,0,0,1,896,-512)">
        <g id="Rock5" transform="matrix(1.06667,0,0,0.979592,-409.6,272.327)">
            <g transform="matrix(1,0,0,1,-3,-2)">
                <path d="M463,361L483,358L492,334L474,312L451,326.422L447,348L463,361Z" style="fill:white;"/>
            </g>
            <g transform="matrix(0.9375,0,0,1.02083,384,48.6667)">
                <path d="M68.267,270.128L79.437,269.699L88.533,265.796L92.8,256L68.267,270.128ZM92.8,272.653L90.667,283.429L98.133,292.245L102.4,278.531L92.8,272.653ZM64,291.265L75.733,289.306L81.067,304L64,291.265Z" style="fill-opacity:0.15;"/>
            </g>
        </g>
        <g id="Rock4" transform="matrix(1.04348,0,0,1,-397.217,231)">
            <path d="M466,281L488,293L475,329L448,324L442,296L466,281Z" style="fill:rgb(205,205,205);"/>
            <g transform="matrix(0.958333,0,0,1,380.667,89)">
                <path d="M79.526,206L90.612,210L91.13,218.274L76.445,218.545L79.526,206ZM70.261,235L77.565,230L85.913,235L86.924,237.957L70.261,235ZM95.393,206.432L109.3,211.164L105.55,221.116L98.477,217.838L95.393,206.432Z" style="fill-opacity:0.15;"/>
            </g>
        </g>
        <g id="Rock3" transform="matrix(1.09091,0,0,1.09091,-446.182,230.182)">
            <g transform="matrix(1,-4.16334e-16,4.16334e-16,1,-1,1)">
                <path d="M426,316L411,327L410,347L425,360L442,357L454,340L445,323L426,316Z" style="fill:rgb(205,205,205);"/>
            </g>
            <g transform="matrix(0.916667,0,0,0.916667,409,82.3333)">
                <path d="M14.197,265.447L38.182,263.636L17.455,256L14.197,265.447ZM10.166,261.345L0,289.818L1.091,268L10.166,261.345ZM34.449,294.188L25.73,282.182L15.381,282.263L13.425,296.768L34.449,294.188Z" style="fill-opacity:0.15;"/>
            </g>
        </g>
        <g id="Rock2" transform="matrix(1.07648,0,0,1.10323,-440.28,203.657)">
            <g transform="matrix(0.928954,0,0,0.906429,409,105.457)">
                <path d="M45.301,195.139L19.1,192L0,208.993L4.847,237.289L27.475,240L48,226.902L45.301,195.139Z" style="fill:white;"/>
            </g>
            <g transform="matrix(0.928954,0,0,0.906429,409,105.457)">
                <path d="M11.433,238.078L21.995,231.031L31.348,237.528L27.475,240L11.433,238.078ZM0,208.993L10.97,227.952L4.847,237.289L0,208.993ZM15.491,211.709L19.253,201.708L31.284,204.538L31.34,216.483L20.291,217.892L15.491,211.709ZM46.889,213.831L34.46,193.84L45.301,195.139L46.889,213.831Z" style="fill-opacity:0.15;"/>
            </g>
        </g>
        <g id="Rock1" transform="matrix(1.02128,0,0,1.10451,-304,177.332)">
            <g transform="matrix(1.14634,0,0,1.10137,-63.0488,-36.2231)">
                <path d="M454,308L431,310L424,329L434.477,347.458L463,345L465,320L454,308Z" style="fill:rgb(163,163,163);"/>
            </g>
            <g transform="matrix(0.979167,0,0,0.905375,297.667,129.168)">
                <path d="M157.158,232.325L142.388,226.464L138.849,218.613L149.14,209.568L163.07,220.289L157.158,232.325ZM146.939,193.462L157.617,203.2L176,206.598L163.122,192L146.939,193.462Z" style="fill-opacity:0.15;"/>
            </g>
        </g>
    </g>
    <g id="Skeleton" transform="matrix(1,0,0,1,128,0)">
        <g id="Skel51" transform="matrix(1,0,0,1,320,312)">
            <path d="M64,96L128,160L192,96L184,88L128,144L72,88L64,96Z" style="fill:rgb(174,174,174);"/>
        </g>
        <g id="Skel50" transform="matrix(-1,-1.22465e-16,1.22465e-16,-1,528,408)">
            <path d="M80,80L112,48L144,80L136,88L112,64L88,88L80,80Z" style="fill:rgb(174,174,174);"/>
        </g>
        <g id="Skel33" transform="matrix(2,0,0,1,-1344,304)">
            <rect x="896" y="52" width="32" height="12" style="fill:rgb(174,174,174);"/>
        </g>
        <g id="Skel32" transform="matrix(1.5,0,0,1,-896,288)">
            <rect x="896" y="52" width="32" height="12" style="fill:rgb(174,174,174);"/>
        </g>
        <g id="Skel31" transform="matrix(1,0,0,1,-448,272)">
            <rect x="896" y="52" width="32" height="12" style="fill:rgb(174,174,174);"/>
        </g>
        <g id="Skel30" transform="matrix(0.375,0,0,1,160,272)">
            <rect x="896" y="52" width="32" height="12" style="fill:rgb(174,174,174);"/>
        </g>
        <g id="Skel21" transform="matrix(1.33333,0,0,1.33333,-725.333,362.667)">
            <path d="M838,16L832,10L838,4L844,10L838,16Z" style="fill:rgb(174,174,174);"/>
        </g>
        <g id="Skel20" transform="matrix(1.33333,0,0,1.33333,-709.333,362.667)">
            <path d="M844,10L832,10L838,4L844,10Z" style="fill:rgb(174,174,174);"/>
        </g>
        <g id="Skel12" transform="matrix(1,0,0,1,-320,336)">
            <path d="M640,128L640,112L688,64L704,64L640,128Z" style="fill:rgb(174,174,174);"/>
        </g>
        <g id="Skel11" transform="matrix(1,1.22465e-16,1.22465e-16,-1,-416,432)">
            <path d="M768,80L784,80L736,32L736,48L768,80Z" style="fill:rgb(174,174,174);"/>
        </g>
        <g id="Skel10" transform="matrix(1,1.22465e-16,1.22465e-16,-1,-416,384)">
            <path d="M752,64L768,64L736,32L736,48L752,64Z" style="fill:rgb(174,174,174);"/>
        </g>
        <g id="Skel03" transform="matrix(1,0,0,1,-384,336)">
            <path d="M640,128L640,112L688,64L688,80L640,128Z" style="fill:rgb(174,174,174);"/>
        </g>
        <g id="Skel02" transform="matrix(1,1.22465e-16,1.22465e-16,-1,-480,432)">
            <path d="M768,80L768,64L736,32L736,48L768,80Z" style="fill:rgb(174,174,174);"/>
        </g>
        <g id="Skel01" transform="matrix(1,1.22465e-16,1.22465e-16,-1,-480,385)">
            <path d="M752,64L752,48L736,32L736,48L752,64Z" style="fill:rgb(174,174,174);"/>
        </g>
        <g transform="matrix(-1.43284,0,0,1.77515,1930.43,237.888)">
            <path d="M838.5,46.257L838.5,68.227L845.689,81.747L838.5,93.577L838.5,108.787L849.798,88.507L867.812,111.04L860.549,85.127L900.615,69.353L900.615,60.34L856.395,77.803L838.5,46.257Z" style="fill:rgb(174,174,174);"/>
        </g>
        <g id="Enemy2A" transform="matrix(1,0,0,1,-128,240)">
            <g transform="matrix(1,0,0,1,128,128)">
                <path d="M576,110L560.339,91L552.354,112L544,32L558,42.336L562,71L576,88L576,110Z" style="fill:rgb(174,174,174);"/>
            </g>
            <g transform="matrix(-1,0,0,1,1280,128)">
                <path d="M576,110L560.339,91L552.354,112L544,32L558,42.336L562,71L576,88L576,110Z" style="fill:rgb(174,174,174);"/>
            </g>
        </g>
    </g>
    <g id="Claws" transform="matrix(1,0,0,1,384,192)">
        <g id="Claw10" transform="matrix(1,0,0,1,-160,16)">
            <path d="M160,416L168,432L176,423L184,432L192,416L184,400L168,400L160,416Z" style="fill:rgb(174,174,174);"/>
        </g>
        <g id="Claw04" transform="matrix(1,0,0,1,-232,240)">
            <path d="M376,88L384,80L416,108L409,128L403,111.862L376,88Z" style="fill:rgb(174,174,174);"/>
        </g>
        <g id="Claw03" transform="matrix(-1,0,0,1,688,264)">
            <path d="M592,128L552,96L584,56L592,64L568,93L592,128Z" style="fill:rgb(174,174,174);"/>
        </g>
        <g id="Claw02" transform="matrix(1,0,0,1,-328,248)">
            <path d="M376,88L392,72L416,104L408,128L400,104L376,88Z" style="fill:rgb(174,174,174);"/>
        </g>
        <g id="Claw01" transform="matrix(1,0,0,1,-376,248)">
            <path d="M376,88L392,72L416,104L408,144L400,104L376,88Z" style="fill:rgb(174,174,174);"/>
        </g>
        <g id="Enemy1A" transform="matrix(1,0,0,1,-624,337)">
            <g transform="matrix(-1,0,0,1,1280,2.22045e-15)">
                <path d="M576,95L576,79L592,79L584,111L576,95Z" style="fill:rgb(174,174,174);"/>
            </g>
            <g transform="matrix(1,0,0,0.941176,128,0.882353)">
                <path d="M576,100L576,83L592,83L584,117L576,100Z" style="fill:rgb(174,174,174);"/>
            </g>
        </g>
    </g>
    <g id="Eyes" transform="matrix(1,0,0,1,-256,320)">
        <g id="Eye1B" transform="matrix(1,0,0,1,208,160)">
            <g transform="matrix(1,0,0,1,-80,0)">
                <circle cx="208" cy="112" r="16" style="fill:rgb(163,163,163);"/>
            </g>
            <g transform="matrix(0.795655,0,0,0.795655,-37.4677,22.8581)">
                <path d="M207.964,107.009C214.207,107.009 219.276,100.724 219.276,112.036C219.276,118.279 214.207,123.347 207.964,123.347C201.721,123.347 196.653,118.279 196.653,112.036C196.653,100.724 201.721,107.009 207.964,107.009Z" style="fill:white;"/>
            </g>
        </g>
        <g id="Eye2A" transform="matrix(1,0,0,1,32,128)">
            <path d="M240,128C231.169,128 224,120.831 224,112C224,103.169 231.169,96 240,96L256,96L256.103,96C264.886,96.056 272,103.204 272,112C272,120.831 264.831,128 256,128L240,128Z" style="fill:rgb(163,163,163);"/>
            <path d="M240,121C235.033,121 231,116.967 231,112C231,107.033 235.033,103 240,103L256,103C260.94,103.031 265,107.052 265,112C265,116.967 260.967,121 256,121L240,121Z" style="fill:white;"/>
        </g>
        <g id="Eye2B" transform="matrix(1,0,0,1,96,128)">
            <path d="M240,128C231.169,128 224,120.831 224,112C224,103.169 231.169,96 240,96L256,96L256.103,96C264.886,96.056 272,103.204 272,112C272,120.831 264.831,128 256,128L240,128Z" style="fill:rgb(163,163,163);"/>
            <path d="M240,121C235.033,121 231,116.967 231,112C231,107.033 235.301,101.291 240,103C251,107 246,107 256,103C261.571,100.772 265,107.052 265,112C265,116.967 260.967,121 256,121L240,121Z" style="fill:white;"/>
        </g>
        <g id="Eye2C" transform="matrix(-1.42904,1.75007e-16,-1.50726e-16,-1.23077,590.919,360.615)">
            <g transform="matrix(1,0,0,1,0,-1)">
                <path d="M112,96C108,104 120,112 128.5,112C136,112 148,104 144,96C142.211,92.422 136,86 128,86C120,86 113.789,92.422 112,96Z" style="fill:rgb(173,173,173);"/>
            </g>
            <path d="M128,92C124,92 120.392,94.039 120,96C119,101 124,104 128,104C132,104 137,100 136,96C135.515,94.06 132,92 128,92Z" style="fill:white;"/>
        </g>
        <g id="Eye3A" transform="matrix(1,0,0,1,32,96)">
            <path d="M240,128C231.169,128 224,120.831 224,112C224,103.169 231.169,96 240,96L272,96L272.103,96C280.886,96.056 288,103.204 288,112C288,120.831 280.831,128 272,128L240,128Z" style="fill:rgb(163,163,163);"/>
            <path d="M271,103C275.94,103.031 281,107.052 281,112C281,116.967 276.967,121 272,121L240,121C235.033,121 231,116.967 231,112C231,107.033 235.033,103 240,103L271,103Z" style="fill:white;"/>
        </g>
        <g id="Eye3B" transform="matrix(1,0,0,1,96,96)">
            <path d="M240,128C231.169,128 224,120.831 224,112C224,103.169 231.169,96 240,96L272,96C280.783,96.056 288,103.204 288,112C288,120.831 280.831,128 272,128L240,128Z" style="fill:rgb(163,163,163);"/>
            <path d="M240,121C235.033,121 231,116.967 231,112C231,107.033 235.301,101.291 240,103C245.372,104.954 250.744,110.953 256,110.998C261.506,111.046 266.884,105.046 272,103C277.571,100.772 281,107.052 281,112C281,116.967 276.967,121 272,121L240,121Z" style="fill:white;"/>
        </g>
    </g>
    <g id="Wings">
        <g id="Wing66" transform="matrix(1,0,0,0.96,-576,139.2)">
            <path d="M720,80L751,96L723,105L704,96.667L720,80Z" style="fill:white;"/>
        </g>
        <g id="Wing65" transform="matrix(1,0,0,1,96,128)">
            <path d="M48,64L48,80L64,64L48,64Z" style="fill:rgb(254,255,254);"/>
        </g>
        <g transform="matrix(-1,-1.22465e-16,1.22465e-16,-1,208,272)">
            <g id="Wing64">
                <path d="M48,96L80,96L80,80L48,96Z" style="fill:rgb(254,255,254);"/>
            </g>
        </g>
        <g transform="matrix(-1,-1.22465e-16,1.22465e-16,-1,176,336)">
            <g id="Wing63">
                <path d="M48,128L80,128L80,96L48,128Z" style="fill:rgb(254,255,254);"/>
            </g>
        </g>
        <g transform="matrix(1,0,0,1,80,128)">
            <g id="Wing62">
                <rect x="16" y="32" width="16" height="32" style="fill:rgb(254,255,254);"/>
            </g>
        </g>
        <g transform="matrix(1,0,0,1,80,96)">
            <g id="Wing61">
                <rect x="48" y="32" width="32" height="32" style="fill:rgb(254,255,254);"/>
            </g>
        </g>
        <g transform="matrix(1,0,0,1,32,128)">
            <g id="Wing60">
                <rect x="64" y="0" width="16" height="16" style="fill:rgb(254,255,254);"/>
            </g>
        </g>
        <g id="Wing52" transform="matrix(1.5,0,0,1.5,-1247.25,304.5)">
            <g transform="matrix(1,0,0,1,-0.5,-11)">
                <path d="M832,40L832,96L864,74.667L864,32L832,40Z" style="fill:rgb(254,255,254);"/>
            </g>
            <g transform="matrix(1,0,0,1,239.5,-43)">
                <circle cx="608" cy="96" r="8" style="fill:rgb(174,174,174);"/>
            </g>
        </g>
        <g id="Wing51" transform="matrix(1.5,0,0,1.5,-1231.25,329.806)">
            <g transform="matrix(1,0,0,1,32.8333,-24.3333)">
                <path d="M837.333,35.333L830.667,44.463L830.667,87.129L862.667,65.796L862.667,28.463L837.333,35.333Z" style="fill:rgb(254,255,254);"/>
            </g>
            <g transform="matrix(0.833333,0,0,0.833333,372.833,-46.5374)">
                <circle cx="608" cy="96" r="8" style="fill:rgb(174,174,174);"/>
            </g>
        </g>
        <g id="Wing50" transform="matrix(1,0,0,1,-703.5,315)">
            <g transform="matrix(1,0,0,1,-0.5,-11)">
                <path d="M832,40L832,96L864,64L864,32L832,40Z" style="fill:rgb(254,255,254);"/>
            </g>
            <g transform="matrix(1,0,0,1,239.5,-46)">
                <circle cx="608" cy="96" r="8" style="fill:rgb(174,174,174);"/>
            </g>
        </g>
        <g id="Wing41" transform="matrix(-1,0,0,1,1328,128)">
            <path d="M1216,128L1270,128L1280,192L1248,176L1216,128Z" style="fill:white;"/>
            <g transform="matrix(1,-1.22465e-16,-1.22465e-16,-1,1216,336)">
                <path d="M0,208L10.667,192L56.5,192L54,208" style="fill:rgb(216,216,216);"/>
            </g>
        </g>
        <g id="Wing40" transform="matrix(-1,0,0,1,1312,128)">
            <path d="M1270,128L1312,128L1312,208L1280,192L1270,128Z" style="fill:rgb(254,255,254);"/>
            <g transform="matrix(1,-1.22465e-16,-1.22465e-16,-1,1216,336)">
                <path d="M54,208L56.5,192L96,192L96,208" style="fill:rgb(216,216,216);"/>
            </g>
        </g>
        <g id="Wing30" transform="matrix(1,0,0,1,-1.42109e-14,-144)">
            <g transform="matrix(1,0,0,1,80,16)">
                <path d="M16,176L80,160L80,144L16,144L16,176Z" style="fill:rgb(254,255,254);"/>
            </g>
            <rect x="96" y="144" width="64" height="16" style="fill:rgb(216,216,216);"/>
        </g>
        <g id="Wing22" transform="matrix(1,0,0,1,-112,96)">
            <g transform="matrix(1,0,0,1,16,16)">
                <path d="M144,128L176,96L176,48L144,80L144,128L144,80" style="fill:rgb(254,255,254);"/>
            </g>
            <path d="M160,112L192,80L192,64L160,96L160,112Z" style="fill:rgb(216,216,216);"/>
        </g>
        <g transform="matrix(1,0,0,1,-96,32)">
            <g id="Wing21">
                <path d="M144,128L176,96L176,64L144,96L144,128L144,96" style="fill:rgb(254,255,254);"/>
            </g>
        </g>
        <g transform="matrix(1,0,0,1,-112,48)">
            <g id="Wing20">
                <path d="M160,48L192,16L192,0L160,32L160,48Z" style="fill:rgb(254,255,254);"/>
            </g>
        </g>
        <g id="Wing12" transform="matrix(1,0,0,1,-112,112)">
            <g transform="matrix(1,0,0,1,-2.84217e-14,-16)">
                <path d="M112,144L112,96L144,80L144,128L112,144" style="fill:rgb(254,255,254);"/>
            </g>
            <path d="M112,96L144,80L144,64L112,80L112,96Z" style="fill:rgb(216,216,216);"/>
        </g>
        <g transform="matrix(1,0,0,1,-112,80)">
            <g id="Wing11">
                <path d="M112,96L112,64L144,48L144,80L112,96Z" style="fill:rgb(254,255,254);"/>
            </g>
        </g>
        <g transform="matrix(1,0,0,1,-112,80)">
            <g id="Wing10">
                <path d="M112,32L112,16L144,0L144,16L112,32Z" style="fill:rgb(254,255,254);"/>
            </g>
        </g>
        <g id="Wing03" transform="matrix(1,0,0,1,-16,-192)">
            <g transform="matrix(1,0,0,1,-80,160)">
                <path d="M144,32L176,48L144,80L144,32Z" style="fill:rgb(254,255,254);"/>
            </g>
            <path d="M64,208L74.667,197.333L64,192L64,208Z" style="fill:rgb(216,216,216);"/>
        </g>
        <g id="Wing02" transform="matrix(1,0,0,1,-112,-144)">
            <path d="M112,224L128,208L112,192L112,224Z" style="fill:rgb(254,255,254);"/>
            <path d="M112,208L120,200L112,192L112,208Z" style="fill:rgb(216,216,216);"/>
        </g>
        <g id="Wing01" transform="matrix(1,0,0,1,-128,-144)">
            <path d="M128,176L160,144L128,144L128,176Z" style="fill:rgb(254,255,254);"/>
            <path d="M128,160L160,144L128,144L128,160Z" style="fill:rgb(216,216,216);"/>
        </g>
    </g>
    <g id="Circular" transform="matrix(1,0,0,1,16,0)">
        <g id="Circ24">
            <path d="M289.934,286.066C281.246,277.377 269.246,272 256,272L256,256C274.014,256 290.026,263.011 301.526,274.474L289.934,286.066Z" style="fill:rgb(254,255,254);"/>
        </g>
        <g id="Circ23">
            <path d="M278.623,233.377C272.876,227.63 264.956,224.056 256.207,224.001L256,224L256,208L256.31,208.001C269.433,208.084 281.314,213.445 289.935,222.065L278.623,233.377Z" style="fill:rgb(254,255,254);"/>
        </g>
        <g id="Circ22">
            <path d="M267.312,180.688C264.438,177.815 260.478,176.028 256.103,176L256,176L256,158.065C265.365,158.065 273.848,161.867 279.991,168.009L267.312,180.688Z" style="fill:rgb(254,255,254);"/>
        </g>
        <g id="Circ21" transform="matrix(0.5,0,0,0.5,160,64)">
            <g transform="matrix(2,0,0,2,-320,-128)">
                <path d="M267.312,116.688C264.438,113.815 260.478,112.028 256.103,112L256,112L256,80L256.31,80.001C269.433,80.084 281.314,85.445 289.935,94.065L267.312,116.688Z" style="fill:rgb(254,255,254);"/>
            </g>
            <g transform="matrix(2,0,0,2,-320,-128)">
                <path d="M278.623,105.377C272.876,99.63 264.956,96.056 256.207,96.001L256,96L256,80L256.31,80.001C269.433,80.084 281.314,85.445 289.935,94.065L278.623,105.377Z" style="fill:rgb(216,216,216);"/>
            </g>
        </g>
        <g id="Circ20" transform="matrix(1,0,0,1,64,0)">
            <g transform="matrix(1,0,0,1,-64,0)">
                <path d="M267.312,52.688C264.438,49.815 260.478,48.028 256.103,48L256,48L256,0C273.594,0 289.673,7.076 301.313,18.687L267.312,52.688Z" style="fill:rgb(254,255,254);"/>
            </g>
            <g transform="matrix(1,0,0,1,-64,0)">
                <path d="M289.934,30.066C281.246,21.377 269.246,16 256,16L256,0C274.014,0 290.026,7.011 301.526,18.474L289.934,30.066Z" style="fill:rgb(216,216,216);"/>
            </g>
        </g>
        <g transform="matrix(1,0,0,1,8.52651e-14,256)">
            <g id="Circ14">
                <path d="M192,16L192,0C228,0 256,28 255.999,63.586L256,64L240,64C240,37.508 218.492,16 192,16Z" style="fill:rgb(254,255,254);"/>
            </g>
        </g>
        <g transform="matrix(1,0,0,1,8.52651e-14,64)">
            <g id="Circ13">
                <path d="M192,160L192,144L192.31,144.001C218.557,144.167 239.833,165.444 239.999,191.69L240,192L224,192L223.999,191.793C223.889,174.296 209.704,160.111 192.207,160.001L192,160Z" style="fill:rgb(254,255,254);"/>
            </g>
        </g>
        <g transform="matrix(1,0,0,1,8.52651e-14,64)">
            <g id="Circ131" serif:id="Circ13">
                <path d="M192,160L192,144L192.31,144.001C218.557,144.167 239.833,165.444 239.999,191.69L240,192L224,192L223.999,191.793C223.889,174.296 209.704,160.111 192.207,160.001L192,160Z" style="fill:rgb(254,255,254);"/>
            </g>
        </g>
        <g transform="matrix(1,0,0,1,0,64)">
            <g id="Circ12">
                <path d="M192,94.065C210.729,94.065 225.935,109.271 225.935,128L208,128L208,127.897C207.944,119.148 200.852,112.056 192.103,112L192,112L192,94.065Z" style="fill:rgb(254,255,254);"/>
            </g>
        </g>
        <g id="Circ11" transform="matrix(0.5,0,0,0.5,96,64)">
            <g transform="matrix(2,0,0,2,-192,-128)">
                <path d="M192,80L192.31,80.001C218.557,80.167 239.833,101.444 239.999,127.69L240,128L208,128L208,127.897C207.944,119.148 200.852,112.056 192.103,112L192,112L192,80Z" style="fill:rgb(254,255,254);"/>
            </g>
            <g transform="matrix(2,0,0,2,-192,-256)">
                <path d="M192,160L192,144L192.31,144.001C218.557,144.167 239.833,165.444 239.999,191.69L240,192L224,192L223.999,191.793C223.889,174.296 209.704,160.111 192.207,160.001L192,160Z" style="fill:rgb(216,216,216);"/>
            </g>
        </g>
        <g id="Circ10">
            <g transform="matrix(1,0,0,1,0,-64)">
                <path d="M192,112L192,64C227,64 256,92 256,128L208,128L208,127.897C207.944,119.148 200.852,112.056 192.103,112L192,112Z" style="fill:rgb(254,255,254);"/>
            </g>
            <path d="M192,16L192,0C228,0 256,28 255.999,63.586L256,64L240,64C240,37.508 218.492,16 192,16Z" style="fill:rgb(216,216,216);"/>
        </g>
    </g>
    <g id="Features" transform="matrix(1,0,0,1,128,0)">
        <g id="Feat70" transform="matrix(1.5,9.86076e-32,9.86076e-32,1.5,472,-128)">
            <g transform="matrix(1,0,0,1,-80,0)">
                <circle cx="208" cy="112" r="16" style="fill:rgb(254,255,254);"/>
            </g>
            <g transform="matrix(0.795655,0,0,0.795655,-37.4677,22.8581)">
                <circle cx="207.964" cy="112.036" r="11.311" style="fill:rgb(205,205,205);"/>
            </g>
            <g transform="matrix(0.666667,0,0,0.666667,-400,85.3333)">
                <path d="M792,26C802,26 808,36 813,45C814.374,47.472 814.525,49.29 813,48C800,37 784,36 771,48C770.234,48.707 769.735,47.53 771,45C776,35 782,26 792,26Z" style="fill:rgb(138,138,138);"/>
            </g>
        </g>
        <g id="Feat60" transform="matrix(1,1.22465e-16,1.3996e-16,-1.14286,-1072,333.714)">
            <g transform="matrix(1,0,0,1,1216,16)">
                <path d="M120,80L112,70L128,45L144,70L136,80" style="fill:rgb(206,206,206);"/>
            </g>
            <g transform="matrix(1,0,0,1,1216,16)">
                <path d="M118,77L132,75L137,69L135,56L144,70L137,80L120,80" style="fill-opacity:0.1;"/>
            </g>
            <g transform="matrix(1,0,0,1,1216,16)">
                <path d="M128,45L124,62L113,71L112,70L128,45Z" style="fill:white;fill-opacity:0.4;"/>
            </g>
        </g>
        <g id="Feat42" transform="matrix(1,0,0,1,-352,113)">
            <g transform="matrix(-1,0,0,1,1280,2.22045e-15)">
                <path d="M576,95L576,15L592,79L576,95Z" style="fill:rgb(216,216,216);"/>
            </g>
            <g transform="matrix(1,0,0,0.941176,128,0.882353)">
                <path d="M576,100L576,15L592,83L576,100Z" style="fill:rgb(216,216,216);"/>
            </g>
            <g transform="matrix(1,0,0,1,128,2.22045e-15)">
                <path d="M576,15L560,79L576,95L576,15Z" style="fill:white;"/>
            </g>
        </g>
        <g id="Feat41" transform="matrix(1,0,0,1,-434,-17)">
            <g transform="matrix(1,0,0,1,140,130)">
                <path d="M590,15L582,55L582,87L590,95L590,15Z" style="fill:rgb(254,255,254);"/>
            </g>
            <g transform="matrix(0.923077,0,0,1,198.308,129)">
                <path d="M576,96L576,16L602,80L576,96Z" style="fill:rgb(216,216,216);"/>
            </g>
        </g>
        <g id="Feat40" transform="matrix(1,0,0,1,-489,-17)">
            <g transform="matrix(1,0,0,1,163,130)">
                <path d="M590,15L582,55L582,87L590,95L590,15Z" style="fill:rgb(254,255,254);"/>
            </g>
            <g transform="matrix(0.923077,0,0,1,221.308,129)">
                <path d="M576,96L576,16L584.667,56L584.667,88L576,96Z" style="fill:rgb(216,216,216);"/>
            </g>
        </g>
        <g id="Feat20" transform="matrix(1,0,0,1,-576,-64)">
            <path d="M976,64L960,80L960,128L976,160L992,128L992,80L976,64Z" style="fill:rgb(254,255,254);"/>
            <path d="M976,64L976,160L992,128L992,80L976,64Z" style="fill:rgb(205,205,205);"/>
        </g>
        <g id="Feat21" transform="matrix(1,0,0,1,-544,-64)">
            <path d="M976,64L960,80L960,160L976,192L992,160L992,80L976,64Z" style="fill:rgb(254,255,254);"/>
            <path d="M976,64L976,192L992,160L992,80L976,64Z" style="fill:rgb(205,205,205);"/>
        </g>
        <g id="Feat22" transform="matrix(1,0,0,1,-512,-64)">
            <path d="M976,64L960,80L960,192L976,224L992,192L992,80L976,64Z" style="fill:rgb(254,255,254);"/>
            <path d="M976,64L976,224L992,192L992,80L976,64Z" style="fill:rgb(205,205,205);"/>
        </g>
        <g id="Feat30" transform="matrix(1,0,0,1,-576,-64)">
            <path d="M1072,64L1056,96L1056,128L1072,192L1088,128L1088,96L1072,64Z" style="fill:rgb(254,255,254);"/>
            <path d="M1072,192L1088,128L1088,96L1072,64L1072,192Z" style="fill:rgb(205,205,205);"/>
        </g>
        <g id="Feat31" transform="matrix(1,0,0,1,-544,-64)">
            <path d="M1072,64L1056,96L1056,144L1072,224L1088,144L1088,96L1072,64Z" style="fill:rgb(254,255,254);"/>
            <path d="M1072,224L1088,144L1088,96L1072,64L1072,224Z" style="fill:rgb(205,205,205);"/>
        </g>
        <g id="Feat32" transform="matrix(1,0,0,1,-512,-64)">
            <path d="M1072,64L1056,96L1056,160L1072,256L1088,160L1088,96L1072,64Z" style="fill:rgb(254,255,254);"/>
            <path d="M1072,256L1088,160L1088,96L1072,64L1072,256Z" style="fill:rgb(205,205,205);"/>
        </g>
        <g transform="matrix(1,0,0,1,64,-64)">
            <g id="Feat12">
                <path d="M256.798,85C256.28,83.427 256,81.746 256,80C256,71.169 263.169,64 272,64C280.831,64 288,71.169 288,80C288,81.746 287.72,83.427 287.202,85L287.205,85L287.13,85.214C287.104,85.289 287.077,85.364 287.05,85.439L272,128L257.028,85.651C256.947,85.437 256.871,85.221 256.799,85.003L256.798,85L256.798,85Z" style="fill:rgb(254,255,254);"/>
            </g>
        </g>
        <g transform="matrix(1,0,0,1,64,-64)">
            <g id="Feat11">
                <path d="M226.143,88C224.78,85.646 224,82.913 224,80C224,71.169 231.169,64 240,64C248.831,64 256,71.169 256,80C256,82.913 255.22,85.646 253.857,88L253.857,88L240,112L226.143,88L226.143,88Z" style="fill:rgb(254,255,254);"/>
            </g>
        </g>
        <g transform="matrix(1,0,0,1,0,-96)">
            <g id="Feat10">
                <circle cx="272" cy="112" r="16" style="fill:rgb(254,255,254);"/>
            </g>
        </g>
        <g id="Feat03" transform="matrix(1,0,0,1,-96,64)">
            <g transform="matrix(1,0,0,1,64,-64)">
                <path d="M352,64L368,128L384,64L352,64Z" style="fill:rgb(254,255,254);"/>
            </g>
            <path d="M432,64L432,0L448,0L432,64Z" style="fill:rgb(216,216,216);"/>
        </g>
        <g id="Feat02" transform="matrix(1,0,0,1,-96,64)">
            <g transform="matrix(1,0,0,1,64,-80)">
                <path d="M336,128L352,80L320,80L336,128Z" style="fill:rgb(254,255,254);"/>
            </g>
            <path d="M400,48L416,0L400,0L400,48Z" style="fill:rgb(216,216,216);"/>
        </g>
        <g id="Feat01" transform="matrix(1,0,0,1,-96,64)">
            <g transform="matrix(1,0,0,1,64,-80)">
                <path d="M288,80L304,112L320,80L288,80Z" style="fill:rgb(254,255,254);"/>
            </g>
            <path d="M368,32L368,0L384,0L368,32Z" style="fill:rgb(216,216,216);"/>
        </g>
    </g>
    <g id="Eye1A" transform="matrix(1,0,0,1,-112,480)">
        <g transform="matrix(1,0,0,1,-80,0)">
            <circle cx="208" cy="112" r="16" style="fill:rgb(163,163,163);"/>
        </g>
        <g transform="matrix(0.795655,0,0,0.795655,-37.4677,22.8581)">
            <circle cx="207.964" cy="112.036" r="11.311" style="fill:white;"/>
        </g>
    </g>
    <g id="Enemy3A" transform="matrix(1,0,0,1,-127.5,307)">
        <g transform="matrix(0.955224,0,0,1.18343,30.5448,-46.4083)">
            <path d="M838.5,50.2L838.5,84L882.469,111.04L852.198,64.021L838.5,50.2Z" style="fill:rgb(174,174,174);"/>
        </g>
        <g transform="matrix(-0.955224,0,0,1.18343,1632.46,-46.4083)">
            <path d="M838.5,50.2L838.5,84L882.469,111.04L852.198,64.021L838.5,50.2Z" style="fill:rgb(174,174,174);"/>
        </g>
    </g>
    <g transform="matrix(1.19048,0,0,1.19048,451.333,546.238)">
        <path d="M320,25L266,109L320,93L373.52,110L320,25" style="fill:rgb(202,202,202);"/>
    </g>
    <g id="Boss2B" transform="matrix(1,0,0,1,-384,432)">
        <g transform="matrix(-0.996124,1.2199e-16,-1.22465e-16,-1,1471.38,336)">
            <path d="M127.875,64L95.751,128L96,288L160,288L160,128L127.875,64Z" style="fill:white;"/>
        </g>
        <g transform="matrix(-1,1.22465e-16,-1.22465e-16,-1,1472,336)">
            <path d="M112,288L128,224L96,128L96,288" style="fill:rgb(206,206,206);"/>
        </g>
        <g transform="matrix(-1,1.22465e-16,-1.22465e-16,-1,1472,336)">
            <path d="M160,288L144,288L128,224L160,128L160,288Z" style="fill:rgb(206,206,206);"/>
        </g>
        <g transform="matrix(-1,1.22465e-16,-1.22465e-16,-1,1472,336)">
            <path d="M104,288L104,294L120,294L120,288" style="fill:rgb(206,206,206);"/>
        </g>
        <g transform="matrix(-1,1.22465e-16,-1.22465e-16,-1,1440,336)">
            <path d="M104,288L104,294L120,294L120,288" style="fill:rgb(206,206,206);"/>
        </g>
        <g transform="matrix(1,-1.22465e-16,-1.22465e-16,-1,1216,336)">
            <path d="M128,80L128,288L160,288L160,128L136,80" style="fill-opacity:0.16;"/>
        </g>
    </g>
</svg>
