<?xml version="1.0" encoding="UTF-8" standalone="no"?>
<!DOCTYPE svg PUBLIC "-//W3C//DTD SVG 1.1//EN" "http://www.w3.org/Graphics/SVG/1.1/DTD/svg11.dtd">
<svg width="100%" height="100%" viewBox="0 0 128 128" version="1.1" xmlns="http://www.w3.org/2000/svg" xmlns:xlink="http://www.w3.org/1999/xlink" xml:space="preserve" xmlns:serif="http://www.serif.com/" style="fill-rule:evenodd;clip-rule:evenodd;stroke-linejoin:round;stroke-miterlimit:2;">
    <g transform="matrix(0.828122,-1.72196e-22,-1.44411e-22,0.828128,11.0004,-95.0008)">
        <g id="Icon">
            <g>
                <path d="M128,153.6C128,139.471 116.529,128 102.4,128L25.6,128C11.471,128 0,139.471 0,153.6L0,230.4C0,244.529 11.471,256 25.6,256L102.4,256C116.529,256 128,244.529 128,230.4L128,153.6Z" style="fill:url(#_Radial1);"/>
                <path d="M128,153.6C128,139.471 116.529,128 102.4,128L25.6,128C11.471,128 0,139.471 0,153.6L0,230.4C0,244.529 11.471,256 25.6,256L102.4,256C116.529,256 128,244.529 128,230.4L128,153.6ZM119.547,153.6L119.547,230.4C119.547,239.864 111.864,247.547 102.4,247.547L25.6,247.547C16.136,247.547 8.453,239.864 8.453,230.4L8.453,153.6C8.453,144.136 16.136,136.453 25.6,136.453L102.4,136.453C111.864,136.453 119.547,144.136 119.547,153.6Z" style="fill:white;"/>
                <g>
                    <clipPath id="_clip2">
                        <path d="M128,153.6C128,139.471 116.529,128 102.4,128L25.6,128C11.471,128 0,139.471 0,153.6L0,230.4C0,244.529 11.471,256 25.6,256L102.4,256C116.529,256 128,244.529 128,230.4L128,153.6Z"/>
                    </clipPath>
                    <g clip-path="url(#_clip2)">
                        <g transform="matrix(1.06667,7.0121e-33,7.0121e-33,1.06667,-10.6667,-19.2)">
                            <path d="M96,144C96,144 96,158 95,159C94,160 80,160 80,160C80,160 94,160 95,161C96,162 96,176 96,176C96,176 96,162 97,161C98,160 112,160 112,160C112,160 98,160 97,159C96,158 96,144 96,144Z" style="fill:white;"/>
                        </g>
                        <g transform="matrix(0.366667,0.366667,-0.366667,0.366667,115.2,57.6)">
                            <path d="M96,144C96,144 96,158 95,159C94,160 80,160 80,160C80,160 94,160 95,161C96,162 96,176 96,176C96,176 96,162 97,161C98,160 112,160 112,160C112,160 98,160 97,159C96,158 96,144 96,144Z" style="fill:white;"/>
                        </g>
                        <g transform="matrix(0.666667,4.38254e-33,4.38256e-33,0.666667,30.3094,136.654)">
                            <path d="M96,144C96,144 96,158 95,159C94,160 80,160 80,160C80,160 94,160 95,161C96,162 96,176 96,176C96,176 96,162 97,161C98,160 112,160 112,160C112,160 98,160 97,159C96,158 96,144 96,144Z" style="fill:white;"/>
                        </g>
                        <g transform="matrix(0.366667,0.366667,-0.366667,0.366667,38.4,76.5586)">
                            <path d="M96,144C96,144 96,158 95,159C94,160 80,160 80,160C80,160 94,160 95,161C96,162 96,176 96,176C96,176 96,162 97,161C98,160 112,160 112,160C112,160 98,160 97,159C96,158 96,144 96,144Z" style="fill:white;"/>
                        </g>
                        <g transform="matrix(1,2.07935e-22,1.74383e-22,0.999996,-992.004,96.0006)">
                            <path d="M1120,160L1120,32L992,32L992,160L1120,160ZM1112,128L1065.29,128L1056,118.735L1046.71,128L1000,128L1000,152C1000,152 1112,152 1112,152L1112,128ZM1017.49,106.667L1004.66,119.467L1043.16,119.467L1051.72,110.933L1051.72,98.133L1043.16,89.6L1030.33,89.6L1026.05,85.333L1051.72,85.333L1051.72,81.067L1043.16,72.533L1026.05,72.533L1017.49,81.067L1017.49,93.867L1026.05,102.4L1038.89,102.4L1043.16,106.667L1017.49,106.667ZM1068.84,119.467L1060.28,110.933L1060.28,81.067L1068.84,72.533L1085.95,72.533L1094.51,81.067L1094.51,85.333L1068.84,85.333L1073.11,89.6L1077.39,89.6L1085.95,98.133L1085.95,102.4L1068.84,102.4L1073.11,106.667L1094.51,106.667L1107.34,119.467L1068.84,119.467ZM1000,112.044L1011.81,100.267L1008.94,97.401L1008.94,77.867L1022.84,64L1046.71,64L1056,73.265L1065.29,64L1089.49,64L1103.06,77.532L1103.06,93.867L1093.77,93.867L1094.51,94.599L1094.51,98.133L1098.05,98.133L1112,112.044L1112,40L1000,40L1000,112.044Z" style="fill:white;"/>
                        </g>
                    </g>
                </g>
            </g>
        </g>
    </g>
    <defs>
        <radialGradient id="_Radial1" cx="0" cy="0" r="1" gradientUnits="userSpaceOnUse" gradientTransform="matrix(138.569,-130.51,126.234,134.029,26.178,286.736)"><stop offset="0" style="stop-color:black;stop-opacity:1"/><stop offset="0.57" style="stop-color:rgb(6,37,51);stop-opacity:1"/><stop offset="1" style="stop-color:rgb(127,53,41);stop-opacity:1"/></radialGradient>
    </defs>
</svg>
