<?xml version="1.0" encoding="UTF-8" standalone="no"?>
<!DOCTYPE svg PUBLIC "-//W3C//DTD SVG 1.1//EN" "http://www.w3.org/Graphics/SVG/1.1/DTD/svg11.dtd">
<svg width="100%" height="100%" viewBox="0 0 128 128" version="1.1" xmlns="http://www.w3.org/2000/svg" xmlns:xlink="http://www.w3.org/1999/xlink" xml:space="preserve" xmlns:serif="http://www.serif.com/" style="fill-rule:evenodd;clip-rule:evenodd;stroke-linejoin:round;stroke-miterlimit:2;">
    <g id="Icon" transform="matrix(-6.46414e-17,1.24444,-1.28659,-7.58589e-17,311.065,-15.6444)">
        <g transform="matrix(-4.73795e-17,-0.777244,0.803571,-4.03733e-17,-90.2857,241.744)">
            <rect x="0" y="128" width="128" height="128" style="fill:url(#_Radial1);"/>
        </g>
        <g transform="matrix(0.495114,-0.478893,0.495114,0.478893,-92.9194,196.474)">
            <path d="M96,144C96,144 96,158 95,159C94,160 80,160 80,160C80,160 94,160 95,161C96,162 96,176 96,176C96,176 96,162 97,161C98,160 112,160 112,160C112,160 98,160 97,159C96,158 96,144 96,144Z" style="fill:white;"/>
        </g>
        <g transform="matrix(-5.09508e-17,-0.835829,0.864141,-4.34165e-17,-38.2778,253.765)">
            <path d="M96,144C96,144 96,158 95,159C94,160 80,160 80,160C80,160 94,160 95,161C96,162 96,176 96,176C96,176 96,162 97,161C98,160 112,160 112,160C112,160 98,160 97,159C96,158 96,144 96,144Z" style="fill:white;"/>
        </g>
        <g transform="matrix(0.915378,-1.18044e-32,1.2326e-32,0.915378,4.00113,8.81761)">
            <g transform="matrix(-7.45341e-17,-1.22271,1.26412,-6.35124e-17,-175.203,284.233)">
                <path d="M96,144C96,144 96,158 95,159C94,160 80,160 80,160C80,160 94,160 95,161C96,162 96,176 96,176C96,176 96,162 97,161C98,160 112,160 112,160C112,160 98,160 97,159C96,158 96,144 96,144Z" style="fill:white;"/>
            </g>
            <g transform="matrix(0.434541,-0.420304,0.434541,0.420304,-84.1864,139.955)">
                <path d="M96,144C96,144 96,158 95,159C94,160 80,160 80,160C80,160 94,160 95,161C96,162 96,176 96,176C96,176 96,162 97,161C98,160 112,160 112,160C112,160 98,160 97,159C96,158 96,144 96,144Z" style="fill:white;"/>
            </g>
        </g>
        <g transform="matrix(-5.81773e-17,-0.954381,0.970346,-4.87526e-17,1.898,252.243)">
            <path d="M11,91.897L11,82.302L25.278,67.824L22.43,64.937L22.431,47.767L33.933,36.103L54.599,36.103L63.122,44.745L71.644,36.103L92.31,36.103L103.813,47.767L103.813,61.304L94.536,61.304L96.27,63.063L96.27,66.696L99.853,66.696L115.243,82.302L115.243,91.897L71.644,91.897L63.122,83.255L54.599,91.897L11,91.897ZM74.435,85.033L108.375,85.033L97.062,73.56L78.206,73.56L74.435,69.736L89.519,69.736L89.519,65.912L81.977,58.264L78.206,58.264L74.435,54.44L97.062,54.44L97.062,50.616L89.519,42.967L74.435,42.967L66.893,50.616L66.893,77.384L74.435,85.033ZM29.181,73.56L17.868,85.033L51.808,85.033L59.35,77.384L59.35,65.912L51.808,58.264L40.495,58.264L36.724,54.44L59.35,54.44L59.35,50.616L51.808,42.967L36.724,42.967L29.181,50.616L29.181,62.088L36.724,69.736L48.037,69.736L51.808,73.56L29.181,73.56Z" style="fill:white;"/>
        </g>
    </g>
    <defs>
        <radialGradient id="_Radial1" cx="0" cy="0" r="1" gradientUnits="userSpaceOnUse" gradientTransform="matrix(138.569,-130.51,126.234,134.029,26.178,286.736)"><stop offset="0" style="stop-color:black;stop-opacity:1"/><stop offset="0.57" style="stop-color:rgb(6,37,51);stop-opacity:1"/><stop offset="1" style="stop-color:rgb(127,53,41);stop-opacity:1"/></radialGradient>
    </defs>
</svg>
