<?xml version="1.0" encoding="UTF-8" standalone="no"?>
<!DOCTYPE svg PUBLIC "-//W3C//DTD SVG 1.1//EN" "http://www.w3.org/Graphics/SVG/1.1/DTD/svg11.dtd">
<svg width="100%" height="100%" viewBox="0 0 128 128" version="1.1" xmlns="http://www.w3.org/2000/svg" xmlns:xlink="http://www.w3.org/1999/xlink" xml:space="preserve" xmlns:serif="http://www.serif.com/" style="fill-rule:evenodd;clip-rule:evenodd;stroke-linejoin:round;stroke-miterlimit:2;">
    <g transform="matrix(1,0,0,1,-608,-640)">
        <g id="IconSquareTrans" transform="matrix(1,0,0,1,-1.13687e-13,160)">
            <rect x="608" y="480" width="128" height="128" style="fill:none;"/>
            <clipPath id="_clip1">
                <rect x="608" y="480" width="128" height="128"/>
            </clipPath>
            <g clip-path="url(#_clip1)">
                <g transform="matrix(0.534809,0,0,0.529134,107.241,500.057)">
                    <g id="SE">
                        <path id="SE1" serif:id="SE" d="M1056,41.373L1038.63,24L994,24L968,50L968,86.627L973.373,92L921.373,144L1038.63,144L1056,126.627L1073.37,144L1190.63,144L1134.63,88L1128,88L1128,81.373L1126.63,80L1144,80L1144,49.373L1118.63,24L1073.37,24L1056,41.373ZM984,104L960,128L1032,128L1048,112L1048,88L1032,72L1008,72L1000,64L1048,64L1048,56L1032,40L1000,40L984,56L984,80L1000,96L1024,96L1032,104L984,104ZM1080,128L1064,112L1064,56L1080,40L1112,40L1128,56L1128,64L1080,64L1088,72L1096,72L1112,88L1112,96L1080,96L1088,104L1128,104L1152,128L1080,128Z" style="fill:white;"/>
                    </g>
                </g>
            </g>
            <path d="M736,480L608,480L608,608L736,608L736,480ZM728,488L728,600C728,600 616,600 616,600C616,600 616,488 616,488L728,488Z" style="fill:white;"/>
        </g>
    </g>
</svg>
