<?xml version="1.0" encoding="UTF-8" standalone="no"?>
<!DOCTYPE svg PUBLIC "-//W3C//DTD SVG 1.1//EN" "http://www.w3.org/Graphics/SVG/1.1/DTD/svg11.dtd">
<svg width="100%" height="100%" viewBox="0 0 128 128" version="1.1" xmlns="http://www.w3.org/2000/svg" xmlns:xlink="http://www.w3.org/1999/xlink" xml:space="preserve" xmlns:serif="http://www.serif.com/" style="fill-rule:evenodd;clip-rule:evenodd;stroke-linejoin:round;stroke-miterlimit:2;">
    <g transform="matrix(1,0,0,1,-768,-640)">
        <g id="IconRoundedTrans" transform="matrix(1.14286,0,0,1.14286,-3.83693e-13,91.4286)">
            <path d="M784,502.4C784,490.037 773.963,480 761.6,480L694.4,480C682.037,480 672,490.037 672,502.4L672,569.6C672,581.963 682.037,592 694.4,592L761.6,592C773.963,592 784,581.963 784,569.6L784,502.4Z" style="fill:none;"/>
            <clipPath id="_clip1">
                <path d="M784,502.4C784,490.037 773.963,480 761.6,480L694.4,480C682.037,480 672,490.037 672,502.4L672,569.6C672,581.963 682.037,592 694.4,592L761.6,592C773.963,592 784,581.963 784,569.6L784,502.4Z"/>
            </clipPath>
            <g clip-path="url(#_clip1)">
                <g transform="matrix(0.467958,0,0,0.462992,233.836,497.55)">
                    <g id="SE">
                        <path id="SE1" serif:id="SE" d="M1056,41.373L1038.63,24L994,24L968,50L968,86.627L973.373,92L921.373,144L1038.63,144L1056,126.627L1073.37,144L1190.63,144L1134.63,88L1128,88L1128,81.373L1126.63,80L1144,80L1144,49.373L1118.63,24L1073.37,24L1056,41.373ZM984,104L960,128L1032,128L1048,112L1048,88L1032,72L1008,72L1000,64L1048,64L1048,56L1032,40L1000,40L984,56L984,80L1000,96L1024,96L1032,104L984,104ZM1080,128L1064,112L1064,56L1080,40L1112,40L1128,56L1128,64L1080,64L1088,72L1096,72L1112,88L1112,96L1080,96L1088,104L1128,104L1152,128L1080,128Z" style="fill:white;"/>
                    </g>
                </g>
            </g>
            <path d="M784,502.4C784,490.037 773.963,480 761.6,480L694.4,480C682.037,480 672,490.037 672,502.4L672,569.6C672,581.963 682.037,592 694.4,592L761.6,592C773.963,592 784,581.963 784,569.6L784,502.4ZM777,502.4L777,569.6C777,578.099 770.099,585 761.6,585L694.4,585C685.901,585 679,578.099 679,569.6C679,569.6 679,502.4 679,502.4C679,493.901 685.901,487 694.4,487L761.6,487C770.099,487 777,493.901 777,502.4Z" style="fill:white;"/>
        </g>
    </g>
</svg>
