<?xml version="1.0" encoding="UTF-8" standalone="no"?>
<!DOCTYPE svg PUBLIC "-//W3C//DTD SVG 1.1//EN" "http://www.w3.org/Graphics/SVG/1.1/DTD/svg11.dtd">
<svg width="100%" height="100%" viewBox="0 0 128 128" version="1.1" xmlns="http://www.w3.org/2000/svg" xmlns:xlink="http://www.w3.org/1999/xlink" xml:space="preserve" xmlns:serif="http://www.serif.com/" style="fill-rule:evenodd;clip-rule:evenodd;stroke-linejoin:round;stroke-miterlimit:2;">
    <g transform="matrix(1,0,0,1,-1024,-384)">
        <g id="LogoIcon" transform="matrix(1,0,0,1,32,352)">
            <path d="M1120,160L1120,32L992,32L992,160L1120,160ZM1112,128L1065.29,128L1056,118.735L1046.71,128L1000,128L1000,152C1000,152 1112,152 1112,152L1112,128ZM1017.49,106.667L1004.66,119.467L1043.16,119.467L1051.72,110.933L1051.72,98.133L1043.16,89.6L1030.33,89.6L1026.05,85.333L1051.72,85.333L1051.72,81.067L1043.16,72.533L1026.05,72.533L1017.49,81.067L1017.49,93.867L1026.05,102.4L1038.89,102.4L1043.16,106.667L1017.49,106.667ZM1068.84,119.467L1060.28,110.933L1060.28,81.067L1068.84,72.533L1085.95,72.533L1094.51,81.067L1094.51,85.333L1068.84,85.333L1073.11,89.6L1077.39,89.6L1085.95,98.133L1085.95,102.4L1068.84,102.4L1073.11,106.667L1094.51,106.667L1107.34,119.467L1068.84,119.467ZM1000,112.044L1011.81,100.267L1008.94,97.401L1008.94,77.867L1022.84,64L1046.71,64L1056,73.265L1065.29,64L1089.49,64L1103.06,77.532L1103.06,93.867L1093.77,93.867L1094.51,94.599L1094.51,98.133L1098.05,98.133L1112,112.044L1112,40L1000,40L1000,112.044Z" style="fill:white;"/>
        </g>
    </g>
</svg>
