<?xml version="1.0" encoding="UTF-8" standalone="no"?>
<!DOCTYPE svg PUBLIC "-//W3C//DTD SVG 1.1//EN" "http://www.w3.org/Graphics/SVG/1.1/DTD/svg11.dtd">
<svg width="100%" height="100%" viewBox="0 0 128 128" version="1.1" xmlns="http://www.w3.org/2000/svg" xmlns:xlink="http://www.w3.org/1999/xlink" xml:space="preserve" xmlns:serif="http://www.serif.com/" style="fill-rule:evenodd;clip-rule:evenodd;stroke-linejoin:round;stroke-miterlimit:2;">
    <g transform="matrix(1,0,0,1,-1152,-384)">
        <g id="Settings" transform="matrix(0.592721,0,0,0.620155,296.384,61.9535)">
            <path d="M1562.88,558.92C1555.36,557.693 1547.67,557.693 1540.15,558.92L1537.35,572.172C1532.78,573.346 1528.39,575.083 1524.3,577.34L1512.51,569.865C1506.28,574.079 1500.85,579.271 1496.44,585.22L1504.27,596.485C1501.9,600.402 1500.09,604.597 1498.86,608.963L1484.99,611.642C1483.71,618.829 1483.71,626.171 1484.99,633.358L1498.86,636.037C1500.09,640.403 1501.9,644.598 1504.27,648.515L1496.44,659.78C1500.85,665.729 1506.28,670.921 1512.51,675.135L1524.3,667.66C1528.39,669.917 1532.78,671.654 1537.35,672.828L1540.15,686.08C1547.67,687.307 1555.36,687.307 1562.88,686.08L1565.68,672.828C1570.25,671.654 1574.63,669.917 1578.73,667.66L1590.52,675.135C1596.75,670.921 1602.18,665.729 1606.59,659.78L1598.77,648.515C1601.13,644.598 1602.94,640.403 1604.17,636.037L1618.04,633.358C1619.32,626.171 1619.32,618.829 1618.04,611.642L1604.17,608.963C1602.94,604.597 1601.13,600.402 1598.77,596.485L1606.59,585.22C1602.18,579.271 1596.75,574.079 1590.52,569.865L1578.73,577.34C1574.63,575.083 1570.25,573.346 1565.68,572.172L1562.88,558.92ZM1551.52,590.302C1570.11,590.302 1585.2,604.729 1585.2,622.5C1585.2,640.271 1570.11,654.698 1551.52,654.698C1532.92,654.698 1517.83,640.271 1517.83,622.5C1517.83,604.729 1532.92,590.302 1551.52,590.302Z" style="fill:white;"/>
        </g>
    </g>
</svg>
