<?xml version="1.0" encoding="UTF-8" standalone="no"?>
<!DOCTYPE svg PUBLIC "-//W3C//DTD SVG 1.1//EN" "http://www.w3.org/Graphics/SVG/1.1/DTD/svg11.dtd">
<svg width="100%" height="100%" viewBox="0 0 192 112" version="1.1" xmlns="http://www.w3.org/2000/svg" xmlns:xlink="http://www.w3.org/1999/xlink" xml:space="preserve" xmlns:serif="http://www.serif.com/" style="fill-rule:evenodd;clip-rule:evenodd;stroke-linejoin:round;stroke-miterlimit:2;">
    <g transform="matrix(1,0,0,1,-768,-320)">
        <g transform="matrix(1,0,0,1,128,0)">
            <g id="Boss1A">
                <g transform="matrix(1.54553,0,0,1.72884,-559.928,240.03)">
                    <path d="M838.5,46.257L838.5,68.227L845.689,81.747L838.5,93.577L838.5,108.787L849.798,88.507L867.812,111.04L860.549,85.127L900.615,69.353L900.615,60.34L856.395,77.803L838.5,46.257Z" style="fill:rgb(174,174,174);"/>
                </g>
                <g transform="matrix(-1.54553,0,0,1.72884,2031.93,240.03)">
                    <path d="M838.5,46.257L838.5,68.227L845.689,81.747L838.5,93.577L838.5,108.787L849.798,88.507L867.812,111.04L860.549,85.127L900.615,69.353L900.615,60.34L856.395,77.803L838.5,46.257Z" style="fill:rgb(174,174,174);"/>
                </g>
            </g>
        </g>
    </g>
</svg>
