<?xml version="1.0" encoding="UTF-8" standalone="no"?>
<!DOCTYPE svg PUBLIC "-//W3C//DTD SVG 1.1//EN" "http://www.w3.org/Graphics/SVG/1.1/DTD/svg11.dtd">
<svg width="100%" height="100%" viewBox="0 0 32 96" version="1.1" xmlns="http://www.w3.org/2000/svg" xmlns:xlink="http://www.w3.org/1999/xlink" xml:space="preserve" xmlns:serif="http://www.serif.com/" style="fill-rule:evenodd;clip-rule:evenodd;stroke-linejoin:round;stroke-miterlimit:2;">
    <g transform="matrix(1,0,0,1,-752,-384)">
        <g transform="matrix(1,0,0,1,128,0)">
            <g id="Enemy1A" transform="matrix(1,0,0,0.941176,-64,369.882)">
                <g transform="matrix(-1,0,0,1,1280,2.22045e-15)">
                    <path d="M576,96L576,15L592,80L584,117L576,96Z" style="fill:rgb(202,202,202);"/>
                </g>
                <g transform="matrix(-1,0,0,1,1280,2.22045e-15)">
                    <path d="M576,96L576,15L592,80L584,117L576,96Z" style="fill:rgb(202,202,202);"/>
                </g>
                <g transform="matrix(1,0,0,1,128,2.22045e-15)">
                    <path d="M576,96L576,15L592,80L584,117L576,96Z" style="fill:rgb(202,202,202);"/>
                </g>
                <g transform="matrix(1,0,0,1,128,2.22045e-15)">
                    <path d="M576,15L560,80L576,96L576,15Z" style="fill:white;"/>
                </g>
            </g>
        </g>
    </g>
</svg>
